<svg width="1754" height="130" viewBox="0 0 1754 130" fill="none" xmlns="http://www.w3.org/2000/svg">
<g opacity="0.5">
<path opacity="0.15" d="M300.332 385.081C325.888 340.654 358.957 304.467 398.702 277.453C448.467 243.654 508.814 224.262 578.196 219.735C667.596 213.96 756.822 269.168 828.556 313.581C856.521 330.948 882.992 347.245 904.687 356.769C954.983 378.775 1011.25 392.428 1067.46 396.306C1133.16 400.878 1198.02 392.411 1260.04 371.152C1331.33 346.733 1398 305.715 1458.29 249.018C1526.48 184.935 1586.99 100.244 1638.08 -2.48411" stroke="white" stroke-width="1.373" stroke-linecap="round" stroke-linejoin="round"/>
<path opacity="0.15" d="M48.2253 116.18C66.7215 78.6184 90.3595 44.5267 117.96 14.5521C145.56 -15.4225 177.317 -41.2342 211.834 -62.1844C246.471 -83.2091 283.965 -99.3494 323.258 -110.033C362.55 -120.716 403.737 -125.92 445.639 -124.996" stroke="white" stroke-width="1.373" stroke-linecap="round" stroke-linejoin="round"/>
<path opacity="0.15" d="M2.87036 273.987C28.0266 214.672 61.8231 160.987 102.508 114.264C143.192 67.5412 190.668 27.7586 242.959 -4.11049C295.324 -35.8593 352.579 -59.5745 412.799 -74.065C473.02 -88.5554 536.206 -93.8212 600.457 -88.7688" stroke="white" stroke-width="1.373" stroke-linecap="round" stroke-linejoin="round"/>
<path opacity="0.15" d="M18.0904 448.103C18.0904 448.103 82 43.3813 459.808 -19.7524C736.678 -66.0607 870.496 47.6159 965.649 85.9316C1111.56 144.719 1400.97 285.25 1488.6 -555.121" stroke="white" stroke-width="1.387" stroke-linecap="round" stroke-linejoin="round"/>
<path opacity="0.15" d="M740.465 60.1629C789.141 75.5216 836.087 97.3563 879.123 125.77" stroke="white" stroke-width="1.373" stroke-linecap="round" stroke-linejoin="round"/>
<path opacity="0.15" d="M67.2754 479.197C76.8624 427.108 93.3034 376.015 115.539 328.239C137.775 280.462 165.805 236 198.427 197.345C231.049 158.69 268.286 125.744 309.033 101.021C349.9 76.2229 395.108 58.302 442.76 47.0177C490.389 35.8307 540.365 31.2573 590.605 33.4234" stroke="white" stroke-width="1.373" stroke-linecap="round" stroke-linejoin="round"/>
<path opacity="0.15" fill-rule="evenodd" clip-rule="evenodd" d="M190.854 114.714C192.949 115.412 194.146 117.748 193.35 119.821C192.651 121.917 190.315 123.114 188.242 122.318C186.147 121.619 184.95 119.283 185.746 117.21C186.347 115.091 188.661 113.992 190.854 114.714Z" fill="white"/>
<path opacity="0.15" fill-rule="evenodd" clip-rule="evenodd" d="M210.953 94.7878C213.049 95.4864 214.245 97.8226 213.449 99.8954C212.751 101.991 210.414 103.188 208.342 102.392C206.246 101.693 205.049 99.3569 205.845 97.2841C206.446 95.1655 208.76 94.0662 210.953 94.7878Z" fill="white"/>
<path opacity="0.15" fill-rule="evenodd" clip-rule="evenodd" d="M200.417 104.636C202.512 105.335 203.709 107.671 202.913 109.744C202.214 111.839 199.878 113.036 197.805 112.24C195.71 111.541 194.513 109.205 195.309 107.132C195.91 105.014 198.224 103.915 200.417 104.636Z" fill="white"/>
<path opacity="0.15" fill-rule="evenodd" clip-rule="evenodd" d="M371.442 69.3755C373.159 70.807 373.388 73.3265 371.957 75.0442C370.525 76.762 368.029 76.8936 366.311 75.462C364.593 74.0305 364.364 71.511 365.796 69.7933C367.107 68.15 369.626 67.921 371.442 69.3755Z" fill="white"/>
<path opacity="0.15" fill-rule="evenodd" clip-rule="evenodd" d="M397.724 58.0962C399.442 59.5277 399.67 62.0471 398.239 63.7649C396.807 65.4826 394.311 65.6143 392.593 64.1827C390.875 62.7512 390.646 60.2317 392.078 58.5139C393.389 56.8706 395.909 56.6417 397.724 58.0962Z" fill="white"/>
<path opacity="0.15" fill-rule="evenodd" clip-rule="evenodd" d="M384.211 63.1346C385.928 64.5661 386.157 67.0856 384.726 68.8033C383.294 70.5211 380.798 70.6527 379.08 69.2211C377.362 67.7896 377.133 65.2701 378.565 63.5524C379.876 61.9091 382.395 61.6801 384.211 63.1346Z" fill="white"/>
<path opacity="0.15" fill-rule="evenodd" clip-rule="evenodd" d="M889.071 49.0076C888.08 51.0346 888.939 53.4968 890.869 54.4646C892.896 55.4552 895.358 54.5964 896.326 52.6668C897.316 50.6398 896.457 48.1776 894.528 47.2099C892.501 46.2192 890.061 46.9807 889.071 49.0076Z" fill="white"/>
<path opacity="0.15" fill-rule="evenodd" clip-rule="evenodd" d="M860.499 35.0925C859.508 37.1195 860.367 39.5817 862.296 40.5495C864.323 41.5401 866.786 40.6813 867.753 38.7517C868.744 36.7247 867.885 34.2625 865.955 33.2948C863.929 32.3041 861.489 33.0656 860.499 35.0925Z" fill="white"/>
<path opacity="0.15" fill-rule="evenodd" clip-rule="evenodd" d="M875.157 42.6513C874.166 44.6783 875.025 47.1405 876.955 48.1083C878.981 49.0989 881.444 48.2401 882.411 46.3105C883.402 44.2835 882.543 41.8213 880.614 40.8535C878.587 39.8629 876.147 40.6243 875.157 42.6513Z" fill="white"/>
<path opacity="0.15" d="M1414.79 202.516C1477.45 143.603 1533.41 65.1363 1581.05 -30.801" stroke="white" stroke-width="1.373" stroke-linecap="round" stroke-linejoin="round"/>
<path opacity="0.15" d="M271.647 310.528C351.213 198.988 492.66 103.449 736.005 189.994C783.977 207.036 824.968 236.715 862.473 259.821" stroke="white" stroke-width="1.373" stroke-linecap="round" stroke-linejoin="round"/>
<path opacity="0.15" d="M1218.5 250.837C1272.45 232.407 1323.58 200.675 1370.54 156.558C1427.64 102.913 1479.01 30.4523 1523.3 -58.6712" stroke="white" stroke-width="1.373" stroke-linecap="round" stroke-linejoin="round"/>
<path opacity="0.15" d="M757.021 129.5C828.286 148.839 946.971 267.891 1076.03 269.087" stroke="white" stroke-width="1.373" stroke-linecap="round" stroke-linejoin="round"/>
<path opacity="0.15" d="M113.643 524.01C114.554 512.718 127.496 450.735 158.711 380.518C177.832 337.248 200.645 297.928 226.556 263.344C259.803 218.98 298.059 182.576 340.467 155.161C394.413 120.188 455.155 99.554 520.906 93.8645" stroke="white" stroke-width="1.373" stroke-linecap="round" stroke-linejoin="round"/>
<path opacity="0.15" d="M1198 189.511C1243.24 174.064 1286.6 146.975 1326.95 109.111" stroke="white" stroke-width="1.373" stroke-linecap="round" stroke-linejoin="round"/>
</g>
</svg>
